<svg xmlns="http://www.w3.org/2000/svg" width="22" height="22" viewBox="0 0 22 22" role="img" aria-labelledby="title" shape-rendering="crispEdges">
  <title id="title">Jumao idle waking frame two template</title>
  <path fill="#000" d="M7 3H9V4H7ZM17 3H20V4H17ZM7 4H10V5H7ZM16 4H20V5H16ZM7 5H20V6H7ZM7 6H20V7H7ZM7 7H20V8H7ZM7 8H20V9H7ZM1 9H4V10H1ZM7 9H20V10H7ZM1 10H4V11H1ZM5 10H21V11H5ZM1 11H4V12H1ZM5 11H9V12H5ZM11 11H16V12H11ZM18 11H21V12H18ZM1 12H9V13H1ZM11 12H16V13H11ZM18 12H21V13H18ZM3 13H20V14H3ZM3 14H20V15H3ZM4 15H20V16H4ZM5 16H8V18H5ZM9 16H11V18H9ZM14 16H17V18H14ZM18 16H20V18H18Z"/>
</svg>
