<svg xmlns="http://www.w3.org/2000/svg" width="22" height="22" viewBox="0 0 22 22" role="img" aria-labelledby="title" shape-rendering="crispEdges">
  <title id="title">Jumao idle waking frame one template</title>
  <path fill="#000" d="M7 4H9V5H7ZM17 4H20V5H17ZM7 5H10V6H7ZM16 5H20V6H16ZM7 6H20V7H7ZM7 7H20V8H7ZM7 8H20V9H7ZM7 9H20V10H7ZM1 10H4V11H1ZM7 10H20V11H7ZM1 11H4V12H1ZM5 11H21V12H5ZM1 12H4V13H1ZM5 12H21V13H5ZM1 13H9V14H1ZM12 13H16V14H12ZM19 13H21V14H19ZM3 14H20V15H3ZM3 15H20V16H3ZM4 16H20V17H4ZM5 17H8V19H5ZM9 17H11V19H9ZM14 17H17V19H14ZM18 17H20V19H18Z"/>
</svg>
