<svg xmlns="http://www.w3.org/2000/svg" width="22" height="22" viewBox="0 0 22 22" role="img" aria-labelledby="title" shape-rendering="crispEdges">
  <title id="title">Jumao idle resting template</title>
  <path fill="#000" d="M7 5H9V6H7ZM17 5H20V6H17ZM7 6H10V7H7ZM16 6H20V7H16ZM7 7H20V8H7ZM7 8H20V9H7ZM7 9H20V10H7ZM7 10H20V11H7ZM1 11H4V12H1ZM7 11H20V12H7ZM1 12H4V13H1ZM5 12H21V13H5ZM1 13H4V14H1ZM5 13H21V14H5ZM1 14H9V15H1ZM12 14H16V15H12ZM19 14H21V15H19ZM3 15H20V16H3ZM3 16H20V17H3ZM4 17H20V18H4ZM5 18H8V20H5ZM9 18H11V20H9ZM14 18H17V20H14ZM18 18H20V20H18Z"/>
</svg>
