<svg xmlns="http://www.w3.org/2000/svg" width="1024" height="1024" viewBox="0 0 64 64" role="img" aria-labelledby="title" shape-rendering="crispEdges">
  <title id="title">Jumao blocked</title>
  <g id="jumao-source-pixel-cat">
    <rect x="19" y="9" width="7" height="1" fill="#ff922e"/>
    <rect x="49" y="9" width="8" height="1" fill="#ff922e"/>
    <rect x="19" y="10" width="7" height="1" fill="#ff922e"/>
    <rect x="49" y="10" width="8" height="1" fill="#ff922e"/>
    <rect x="19" y="11" width="7" height="1" fill="#ff922e"/>
    <rect x="49" y="11" width="8" height="1" fill="#ff922e"/>
    <rect x="19" y="12" width="7" height="1" fill="#ff922e"/>
    <rect x="49" y="12" width="8" height="1" fill="#ff922e"/>
    <rect x="19" y="13" width="3" height="1" fill="#ff922e"/>
    <rect x="22" y="13" width="3" height="1" fill="#ff9daf"/>
    <rect x="25" y="13" width="5" height="1" fill="#ff922e"/>
    <rect x="46" y="13" width="6" height="1" fill="#ff922e"/>
    <rect x="52" y="13" width="3" height="1" fill="#ff9daf"/>
    <rect x="55" y="13" width="2" height="1" fill="#ff922e"/>
    <rect x="19" y="14" width="3" height="1" fill="#ff922e"/>
    <rect x="22" y="14" width="3" height="1" fill="#ff9daf"/>
    <rect x="25" y="14" width="5" height="1" fill="#ff922e"/>
    <rect x="46" y="14" width="6" height="1" fill="#ff922e"/>
    <rect x="52" y="14" width="3" height="1" fill="#ff9daf"/>
    <rect x="55" y="14" width="2" height="1" fill="#ff922e"/>
    <rect x="19" y="15" width="3" height="1" fill="#ff922e"/>
    <rect x="22" y="15" width="3" height="1" fill="#ff9daf"/>
    <rect x="25" y="15" width="5" height="1" fill="#ff922e"/>
    <rect x="46" y="15" width="6" height="1" fill="#ff922e"/>
    <rect x="52" y="15" width="3" height="1" fill="#ff9daf"/>
    <rect x="55" y="15" width="2" height="1" fill="#ff922e"/>
    <rect x="19" y="16" width="3" height="1" fill="#ff922e"/>
    <rect x="22" y="16" width="3" height="1" fill="#ff9daf"/>
    <rect x="25" y="16" width="27" height="1" fill="#ff922e"/>
    <rect x="52" y="16" width="3" height="1" fill="#ff9daf"/>
    <rect x="55" y="16" width="2" height="1" fill="#ff922e"/>
    <rect x="19" y="17" width="38" height="1" fill="#ff922e"/>
    <rect x="19" y="18" width="38" height="1" fill="#ff922e"/>
    <rect x="19" y="19" width="12" height="1" fill="#ff922e"/>
    <rect x="31" y="19" width="3" height="1" fill="#d85f0e"/>
    <rect x="34" y="19" width="2" height="1" fill="#ff922e"/>
    <rect x="36" y="19" width="3" height="1" fill="#b94a06"/>
    <rect x="39" y="19" width="2" height="1" fill="#ff922e"/>
    <rect x="41" y="19" width="3" height="1" fill="#d85f0e"/>
    <rect x="44" y="19" width="13" height="1" fill="#ff922e"/>
    <rect x="19" y="20" width="12" height="1" fill="#ff922e"/>
    <rect x="31" y="20" width="3" height="1" fill="#d85f0e"/>
    <rect x="34" y="20" width="2" height="1" fill="#ff922e"/>
    <rect x="36" y="20" width="3" height="1" fill="#b94a06"/>
    <rect x="39" y="20" width="2" height="1" fill="#ff922e"/>
    <rect x="41" y="20" width="3" height="1" fill="#d85f0e"/>
    <rect x="44" y="20" width="13" height="1" fill="#ff922e"/>
    <rect x="19" y="21" width="12" height="1" fill="#ff922e"/>
    <rect x="31" y="21" width="3" height="1" fill="#d85f0e"/>
    <rect x="34" y="21" width="2" height="1" fill="#ff922e"/>
    <rect x="36" y="21" width="3" height="1" fill="#b94a06"/>
    <rect x="39" y="21" width="2" height="1" fill="#ff922e"/>
    <rect x="41" y="21" width="3" height="1" fill="#d85f0e"/>
    <rect x="44" y="21" width="13" height="1" fill="#ff922e"/>
    <rect x="19" y="22" width="12" height="1" fill="#ff922e"/>
    <rect x="31" y="22" width="3" height="1" fill="#d85f0e"/>
    <rect x="34" y="22" width="2" height="1" fill="#ff922e"/>
    <rect x="36" y="22" width="3" height="1" fill="#b94a06"/>
    <rect x="39" y="22" width="2" height="1" fill="#ff922e"/>
    <rect x="41" y="22" width="3" height="1" fill="#d85f0e"/>
    <rect x="44" y="22" width="13" height="1" fill="#ff922e"/>
    <rect x="19" y="23" width="12" height="1" fill="#ff922e"/>
    <rect x="31" y="23" width="3" height="1" fill="#d85f0e"/>
    <rect x="34" y="23" width="2" height="1" fill="#ff922e"/>
    <rect x="36" y="23" width="3" height="1" fill="#b94a06"/>
    <rect x="39" y="23" width="2" height="1" fill="#ff922e"/>
    <rect x="41" y="23" width="3" height="1" fill="#d85f0e"/>
    <rect x="44" y="23" width="13" height="1" fill="#ff922e"/>
    <rect x="19" y="24" width="12" height="1" fill="#ff922e"/>
    <rect x="31" y="24" width="3" height="1" fill="#d85f0e"/>
    <rect x="34" y="24" width="2" height="1" fill="#ff922e"/>
    <rect x="36" y="24" width="3" height="1" fill="#b94a06"/>
    <rect x="39" y="24" width="2" height="1" fill="#ff922e"/>
    <rect x="41" y="24" width="3" height="1" fill="#d85f0e"/>
    <rect x="44" y="24" width="13" height="1" fill="#ff922e"/>
    <rect x="4" y="25" width="7" height="1" fill="#ff922e"/>
    <rect x="19" y="25" width="38" height="1" fill="#ff922e"/>
    <rect x="4" y="26" width="1" height="1" fill="#ff922e"/>
    <rect x="5" y="26" width="7" height="1" fill="#d85f0e"/>
    <rect x="19" y="26" width="38" height="1" fill="#ff922e"/>
    <rect x="4" y="27" width="1" height="1" fill="#ff922e"/>
    <rect x="5" y="27" width="7" height="1" fill="#d85f0e"/>
    <rect x="19" y="27" width="38" height="1" fill="#ff922e"/>
    <rect x="4" y="28" width="1" height="1" fill="#ff922e"/>
    <rect x="5" y="28" width="7" height="1" fill="#d85f0e"/>
    <rect x="19" y="28" width="38" height="1" fill="#ff922e"/>
    <rect x="4" y="29" width="1" height="1" fill="#ff922e"/>
    <rect x="5" y="29" width="7" height="1" fill="#d85f0e"/>
    <rect x="16" y="29" width="22" height="1" fill="#ff922e"/>
    <rect x="38" y="29" width="3" height="1" fill="#d7352a"/>
    <rect x="41" y="29" width="19" height="1" fill="#ff922e"/>
    <rect x="4" y="30" width="1" height="1" fill="#ff922e"/>
    <rect x="5" y="30" width="7" height="1" fill="#d85f0e"/>
    <rect x="16" y="30" width="22" height="1" fill="#ff922e"/>
    <rect x="38" y="30" width="3" height="1" fill="#d7352a"/>
    <rect x="41" y="30" width="19" height="1" fill="#ff922e"/>
    <rect x="4" y="31" width="7" height="1" fill="#ff922e"/>
    <rect x="12" y="31" width="12" height="1" fill="#d85f0e"/>
    <rect x="24" y="31" width="2" height="1" fill="#ff922e"/>
    <rect x="26" y="31" width="1" height="1" fill="#0f0f0f"/>
    <rect x="27" y="31" width="3" height="1" fill="#ff922e"/>
    <rect x="30" y="31" width="1" height="1" fill="#0f0f0f"/>
    <rect x="31" y="31" width="7" height="1" fill="#ff922e"/>
    <rect x="38" y="31" width="3" height="1" fill="#d7352a"/>
    <rect x="41" y="31" width="6" height="1" fill="#ff922e"/>
    <rect x="47" y="31" width="1" height="1" fill="#0f0f0f"/>
    <rect x="48" y="31" width="3" height="1" fill="#ff922e"/>
    <rect x="51" y="31" width="1" height="1" fill="#0f0f0f"/>
    <rect x="52" y="31" width="1" height="1" fill="#ff922e"/>
    <rect x="53" y="31" width="9" height="1" fill="#d85f0e"/>
    <rect x="4" y="32" width="7" height="1" fill="#ff922e"/>
    <rect x="12" y="32" width="12" height="1" fill="#d85f0e"/>
    <rect x="24" y="32" width="3" height="1" fill="#ff922e"/>
    <rect x="27" y="32" width="1" height="1" fill="#0f0f0f"/>
    <rect x="28" y="32" width="1" height="1" fill="#ff922e"/>
    <rect x="29" y="32" width="1" height="1" fill="#0f0f0f"/>
    <rect x="30" y="32" width="8" height="1" fill="#ff922e"/>
    <rect x="38" y="32" width="3" height="1" fill="#d7352a"/>
    <rect x="41" y="32" width="7" height="1" fill="#ff922e"/>
    <rect x="48" y="32" width="1" height="1" fill="#0f0f0f"/>
    <rect x="49" y="32" width="1" height="1" fill="#ff922e"/>
    <rect x="50" y="32" width="1" height="1" fill="#0f0f0f"/>
    <rect x="51" y="32" width="2" height="1" fill="#ff922e"/>
    <rect x="53" y="32" width="9" height="1" fill="#d85f0e"/>
    <rect x="4" y="33" width="7" height="1" fill="#ff922e"/>
    <rect x="12" y="33" width="12" height="1" fill="#d85f0e"/>
    <rect x="24" y="33" width="4" height="1" fill="#ff922e"/>
    <rect x="28" y="33" width="1" height="1" fill="#0f0f0f"/>
    <rect x="29" y="33" width="9" height="1" fill="#ff922e"/>
    <rect x="38" y="33" width="3" height="1" fill="#d7352a"/>
    <rect x="41" y="33" width="8" height="1" fill="#ff922e"/>
    <rect x="49" y="33" width="1" height="1" fill="#0f0f0f"/>
    <rect x="50" y="33" width="3" height="1" fill="#ff922e"/>
    <rect x="53" y="33" width="9" height="1" fill="#d85f0e"/>
    <rect x="4" y="34" width="7" height="1" fill="#ff922e"/>
    <rect x="16" y="34" width="11" height="1" fill="#ff922e"/>
    <rect x="27" y="34" width="1" height="1" fill="#0f0f0f"/>
    <rect x="28" y="34" width="1" height="1" fill="#ff922e"/>
    <rect x="29" y="34" width="1" height="1" fill="#0f0f0f"/>
    <rect x="30" y="34" width="8" height="1" fill="#ff922e"/>
    <rect x="38" y="34" width="3" height="1" fill="#d7352a"/>
    <rect x="41" y="34" width="7" height="1" fill="#ff922e"/>
    <rect x="48" y="34" width="1" height="1" fill="#0f0f0f"/>
    <rect x="49" y="34" width="1" height="1" fill="#ff922e"/>
    <rect x="50" y="34" width="1" height="1" fill="#0f0f0f"/>
    <rect x="51" y="34" width="9" height="1" fill="#ff922e"/>
    <rect x="4" y="35" width="10" height="1" fill="#ff922e"/>
    <rect x="16" y="35" width="10" height="1" fill="#ff922e"/>
    <rect x="26" y="35" width="1" height="1" fill="#0f0f0f"/>
    <rect x="27" y="35" width="3" height="1" fill="#ff922e"/>
    <rect x="30" y="35" width="1" height="1" fill="#0f0f0f"/>
    <rect x="31" y="35" width="7" height="1" fill="#ff922e"/>
    <rect x="38" y="35" width="3" height="1" fill="#d7352a"/>
    <rect x="41" y="35" width="6" height="1" fill="#ff922e"/>
    <rect x="47" y="35" width="1" height="1" fill="#0f0f0f"/>
    <rect x="48" y="35" width="3" height="1" fill="#ff922e"/>
    <rect x="51" y="35" width="1" height="1" fill="#0f0f0f"/>
    <rect x="52" y="35" width="8" height="1" fill="#ff922e"/>
    <rect x="4" y="36" width="10" height="1" fill="#ff922e"/>
    <rect x="16" y="36" width="22" height="1" fill="#ff922e"/>
    <rect x="38" y="36" width="3" height="1" fill="#ff9daf"/>
    <rect x="41" y="36" width="19" height="1" fill="#ff922e"/>
    <rect x="3" y="37" width="11" height="1" fill="#ff922e"/>
    <rect x="16" y="37" width="22" height="1" fill="#ff922e"/>
    <rect x="38" y="37" width="3" height="1" fill="#d7352a"/>
    <rect x="41" y="37" width="19" height="1" fill="#ff922e"/>
    <rect x="3" y="38" width="10" height="1" fill="#ff922e"/>
    <rect x="13" y="38" width="11" height="1" fill="#d85f0e"/>
    <rect x="24" y="38" width="14" height="1" fill="#ff922e"/>
    <rect x="38" y="38" width="3" height="1" fill="#d7352a"/>
    <rect x="41" y="38" width="12" height="1" fill="#ff922e"/>
    <rect x="53" y="38" width="9" height="1" fill="#d85f0e"/>
    <rect x="3" y="39" width="21" height="1" fill="#d85f0e"/>
    <rect x="24" y="39" width="29" height="1" fill="#ff922e"/>
    <rect x="53" y="39" width="9" height="1" fill="#d85f0e"/>
    <rect x="3" y="40" width="21" height="1" fill="#d85f0e"/>
    <rect x="24" y="40" width="29" height="1" fill="#ff922e"/>
    <rect x="53" y="40" width="9" height="1" fill="#d85f0e"/>
    <rect x="3" y="41" width="54" height="1" fill="#ff922e"/>
    <rect x="8" y="42" width="49" height="1" fill="#ff922e"/>
    <rect x="12" y="43" width="45" height="1" fill="#ff922e"/>
    <rect x="12" y="44" width="45" height="1" fill="#ff922e"/>
    <rect x="12" y="45" width="45" height="1" fill="#ff922e"/>
    <rect x="16" y="46" width="7" height="1" fill="#ff922e"/>
    <rect x="26" y="46" width="7" height="1" fill="#ff922e"/>
    <rect x="42" y="46" width="7" height="1" fill="#ff922e"/>
    <rect x="51" y="46" width="6" height="1" fill="#ff922e"/>
    <rect x="16" y="47" width="7" height="1" fill="#ff922e"/>
    <rect x="26" y="47" width="7" height="1" fill="#ff922e"/>
    <rect x="42" y="47" width="7" height="1" fill="#ff922e"/>
    <rect x="51" y="47" width="6" height="1" fill="#ff922e"/>
    <rect x="16" y="48" width="7" height="1" fill="#ff922e"/>
    <rect x="26" y="48" width="7" height="1" fill="#ff922e"/>
    <rect x="42" y="48" width="7" height="1" fill="#ff922e"/>
    <rect x="51" y="48" width="6" height="1" fill="#ff922e"/>
    <rect x="16" y="49" width="7" height="1" fill="#ff922e"/>
    <rect x="26" y="49" width="7" height="1" fill="#ff922e"/>
    <rect x="42" y="49" width="7" height="1" fill="#ff922e"/>
    <rect x="51" y="49" width="6" height="1" fill="#ff922e"/>
    <rect x="16" y="50" width="7" height="1" fill="#ff922e"/>
    <rect x="26" y="50" width="7" height="1" fill="#ff922e"/>
    <rect x="42" y="50" width="7" height="1" fill="#ff922e"/>
    <rect x="51" y="50" width="6" height="1" fill="#ff922e"/>
    <rect x="16" y="51" width="7" height="1" fill="#ff922e"/>
    <rect x="26" y="51" width="7" height="1" fill="#ff922e"/>
    <rect x="42" y="51" width="7" height="1" fill="#ff922e"/>
    <rect x="51" y="51" width="6" height="1" fill="#ff922e"/>
    <rect x="16" y="52" width="7" height="1" fill="#ff922e"/>
    <rect x="26" y="52" width="7" height="1" fill="#ff922e"/>
    <rect x="42" y="52" width="7" height="1" fill="#ff922e"/>
    <rect x="51" y="52" width="6" height="1" fill="#ff922e"/>
    <rect x="16" y="53" width="7" height="1" fill="#ff922e"/>
    <rect x="26" y="53" width="7" height="1" fill="#ff922e"/>
    <rect x="42" y="53" width="7" height="1" fill="#ff922e"/>
    <rect x="51" y="53" width="6" height="1" fill="#ff922e"/>
    <rect x="16" y="54" width="7" height="1" fill="#ff922e"/>
    <rect x="26" y="54" width="7" height="1" fill="#ff922e"/>
    <rect x="42" y="54" width="7" height="1" fill="#ff922e"/>
    <rect x="51" y="54" width="6" height="1" fill="#ff922e"/>
  </g>
</svg>
